HIERARCHY
ROOT Pelvis
{
	OFFSET 0.000000 0.000000 0.000000
	CHANNELS 6 Xposition Yposition Zposition Xrotation Yrotation Zrotation
	JOINT LeftUpLeg_virtual
	{
		OFFSET 0.000000 0.000000 0.000000
		CHANNELS 3 Xrotation Yrotation Zrotation
		JOINT LeftUpLeg
		{
			OFFSET 18.735201 -5.666702 -4.541200
			CHANNELS 3 Xrotation Yrotation Zrotation
			JOINT LeftLeg
			{
				OFFSET -0.021200 -31.938179 0.493100
				CHANNELS 3 Xrotation Yrotation Zrotation
				JOINT LeftFoot
				{
					OFFSET 0.021200 -31.938179 -4.336299
					CHANNELS 3 Xrotation Yrotation Zrotation
					JOINT LeftToeBase
					{
						OFFSET 0.943001 -26.722000 15.023500
						CHANNELS 3 Xrotation Yrotation Zrotation
						End Site
						{
							OFFSET 0 0 0
						}
					}
				}
			}
		}
	}
	JOINT RightUpLeg_virtual
	{
		OFFSET 0.000000 0.000000 0.000000
		CHANNELS 3 Xrotation Yrotation Zrotation
		JOINT RightUpLeg
		{
			OFFSET -18.735201 -5.666702 -4.541200
			CHANNELS 3 Xrotation Yrotation Zrotation
			JOINT RightLeg
			{
				OFFSET 0.018946 -31.938133 0.493100
				CHANNELS 3 Xrotation Yrotation Zrotation
				JOINT RightFoot
				{
					OFFSET -0.018946 -31.938126 -4.336299
					CHANNELS 3 Xrotation Yrotation Zrotation
					JOINT RightToeBase
					{
						OFFSET -0.943001 -26.722004 15.023500
						CHANNELS 3 Xrotation Yrotation Zrotation
						End Site
						{
							OFFSET 0 0 0
						}
					}
				}
			}
		}
	}
	JOINT Hips_virtual
	{
		OFFSET 0.000000 0.000000 0.000000
		CHANNELS 3 Xrotation Yrotation Zrotation
		JOINT Hips
		{
			OFFSET -0.000000 -0.000000 -0.000000
			CHANNELS 3 Xrotation Yrotation Zrotation
			JOINT Spine
			{
				OFFSET 0.000000 10.199997 -0.299500
				CHANNELS 3 Xrotation Yrotation Zrotation
				JOINT Spine1
				{
					OFFSET 0.000000 11.900002 -1.516600
					CHANNELS 3 Xrotation Yrotation Zrotation
					JOINT Spine2
					{
						OFFSET 0.000000 13.600006 -2.842500
						CHANNELS 3 Xrotation Yrotation Zrotation
						JOINT Neck_virtual
						{
							OFFSET 0.000000 0.000000 0.000000
							CHANNELS 3 Xrotation Yrotation Zrotation
							JOINT Neck
							{
								OFFSET 0.000000 9.624100 -2.890100
								CHANNELS 3 Xrotation Yrotation Zrotation
								JOINT Head
								{
									OFFSET 0.000000 14.068802 -1.351900
									CHANNELS 3 Xrotation Yrotation Zrotation
									End Site
									{
										OFFSET 0 0 0
									}
								}
							}
						}
						JOINT LeftShoulder_virtual
						{
							OFFSET 0.000000 0.000000 0.000000
							CHANNELS 3 Xrotation Yrotation Zrotation
							JOINT LeftShoulder
							{
								OFFSET 15.263000 10.923401 -0.547700
								CHANNELS 3 Xrotation Yrotation Zrotation
								JOINT LeftArm
								{
									OFFSET 25.438599 -2.830597 -13.032500
									CHANNELS 3 Xrotation Yrotation Zrotation
									JOINT LeftForeArm
									{
										OFFSET 29.960503 0.000000 0.000000
										CHANNELS 3 Xrotation Yrotation Zrotation
										JOINT LeftHand
										{
											OFFSET 27.849251 0.000000 0.000000
											CHANNELS 3 Xrotation Yrotation Zrotation
											End Site
											{
												OFFSET 0 0 0
											}
										}
									}
								}
							}
						}
						JOINT RightShoulder_virtual
						{
							OFFSET 0.000000 0.000000 0.000000
							CHANNELS 3 Xrotation Yrotation Zrotation
							JOINT RightShoulder
							{
								OFFSET -15.263000 10.923401 -0.547700
								CHANNELS 3 Xrotation Yrotation Zrotation
								JOINT RightArm
								{
									OFFSET -25.438599 -2.830597 -13.032500
									CHANNELS 3 Xrotation Yrotation Zrotation
									JOINT RightForeArm
									{
										OFFSET -29.960503 0.000000 0.000000
										CHANNELS 3 Xrotation Yrotation Zrotation
										JOINT RightHand
										{
											OFFSET -27.849251 0.000000 0.000000
											CHANNELS 3 Xrotation Yrotation Zrotation
											End Site
											{
												OFFSET 0 0 0
											}
										}
									}
								}
							}
						}
					}
				}
			}
		}
	}
}
MOTION
Frames: 6
Frame Time: 0.03333333
-2.750028 91.645264 -0.408968 0.000000 0.000000 0.000000 -32.987215 5.141429 3.673461 -81.825195 2.361550 22.697229 83.680233 -6.674913 -2.982597 13.452285 -5.509237 -15.746246 0.000000 0.000000 0.000000 -49.283093 -16.874223 -10.631423 -85.090244 2.088814 -19.608339 84.587310 10.449707 2.085344 13.009704 7.336558 25.942139 0.000000 0.000000 0.000000 -3.106166 -2.702795 -0.114371 -14.257220 5.774147 -1.828514 13.183373 -2.539296 0.682659 9.048897 -0.700396 -1.353125 0.000000 0.000000 0.000000 6.087927 -0.913265 -1.606396 1.835885 0.039047 0.557865 0.000000 0.000000 0.000000 7.455435 0.021008 3.090611 4.228287 -7.444992 22.963890 -54.034347 -21.484975 -11.248025 -9.353760 -50.152754 8.324559 0.000000 0.000000 0.000000 7.799320 0.300247 -4.182482 7.891951 10.677585 -22.562804 -55.717077 13.156387 -0.584166 -21.375869 56.869470 3.560537 0.000000 0.000000 0.000000 
-0.502953 90.952599 -2.191679 0.000000 0.000000 0.000000 -35.268542 4.929626 3.456257 -83.291930 2.111146 21.920713 87.048596 -7.872786 -2.467521 15.591449 -7.040302 -16.562638 0.000000 0.000000 0.000000 -51.857685 -18.928162 -13.092135 -86.668537 2.239575 -20.037810 84.889983 11.261998 2.808437 14.250917 8.110127 27.713807 0.000000 0.000000 0.000000 -4.412567 -1.749366 -0.317855 -12.718908 6.326509 2.769661 13.597280 -3.473052 0.304039 9.563893 -1.049233 -1.326458 0.000000 0.000000 0.000000 5.621188 -1.546331 -1.749316 1.406510 0.170906 0.786529 0.000000 0.000000 0.000000 8.015562 -0.052463 2.985656 4.651743 -5.373432 24.642303 -56.680864 -18.911127 -11.446361 -10.973346 -44.376128 6.438255 0.000000 0.000000 0.000000 8.550224 -0.332483 -4.360851 8.814763 8.434976 -24.930501 -55.896048 9.910445 -7.149528 -23.059280 52.479796 4.883847 0.000000 0.000000 0.000000 
-0.411354 90.879524 -2.933565 0.000000 0.000000 0.000000 -36.827639 7.636233 6.329223 -84.227045 1.418580 23.307899 88.995295 -8.376045 -1.917852 16.846981 -7.874241 -16.599853 0.000000 0.000000 0.000000 -54.773223 -20.781911 -15.248081 -88.356543 2.463138 -20.570530 88.894133 11.281162 3.264881 17.278253 8.425727 28.591561 0.000000 0.000000 0.000000 -3.162767 0.229197 0.000718 -14.665562 8.527193 -0.487964 15.351743 -2.979085 0.587867 9.929703 -0.709468 -0.637338 0.000000 0.000000 0.000000 5.730475 -1.302420 -1.507445 0.786063 0.347000 0.572064 0.000000 0.000000 0.000000 8.902798 0.565240 3.363445 4.684797 -6.579942 25.616409 -58.780362 -19.759555 -13.130716 -13.034608 -42.420573 3.661025 0.000000 0.000000 0.000000 9.297926 0.014151 -3.834986 9.225246 9.331324 -25.858801 -54.907478 11.321479 -5.273149 -25.136242 51.382741 6.110996 0.000000 0.000000 0.000000 
-0.145968 90.187698 -1.500462 0.000000 0.000000 0.000000 -36.964844 9.635495 5.685092 -84.429956 2.328505 22.744960 89.088206 -7.242671 -1.735452 17.185876 -7.001489 -15.343094 0.000000 0.000000 0.000000 -56.516527 -22.693114 -17.460832 -89.073200 2.533541 -21.181912 85.483458 12.039130 3.709380 15.261235 8.677473 29.657272 0.000000 0.000000 0.000000 -3.895912 1.162169 -0.439496 -13.363175 7.281406 -1.324014 13.691579 -3.481981 1.207857 10.628888 -1.027068 -0.959722 0.000000 0.000000 0.000000 3.875403 -1.291199 -1.403310 0.342655 0.489067 0.611739 0.000000 0.000000 0.000000 8.946366 0.325093 3.311862 3.619134 -4.267046 26.557567 -59.273392 -17.126547 -12.339533 -12.699055 -40.705079 2.549997 0.000000 0.000000 0.000000 9.135358 -0.110320 -3.779870 8.501051 7.229391 -27.472132 -54.605703 10.318596 -9.235949 -25.521685 53.782190 6.809793 0.000000 0.000000 0.000000 
-0.145696 90.756599 -1.054035 0.000000 0.000000 0.000000 -37.790118 9.392079 6.156833 -84.835601 1.946233 22.754458 92.290882 -8.106781 -1.027632 19.603242 -8.435028 -15.565487 0.000000 0.000000 0.000000 -55.457103 -22.807062 -15.583331 -88.708742 1.697649 -20.193705 86.501832 11.925449 3.607642 16.564638 8.969382 29.470781 0.000000 0.000000 0.000000 -3.204766 3.403642 -0.685582 -16.979162 7.329754 -0.275213 15.589509 -3.148995 0.899812 11.151688 -1.128586 -0.531293 0.000000 0.000000 0.000000 3.875083 -1.171166 -1.779885 0.281871 0.738039 0.612072 0.000000 0.000000 0.000000 9.667349 0.123215 3.149023 3.581463 -4.698514 26.912453 -57.575995 -17.753270 -13.444561 -11.322098 -39.753313 1.674301 0.000000 0.000000 0.000000 9.246025 -0.329464 -3.257861 9.070064 7.727811 -27.209367 -52.825045 10.020185 -10.764512 -27.611753 55.702723 10.025871 0.000000 0.000000 0.000000 
-0.783764 90.746056 -1.761314 0.000000 0.000000 0.000000 -37.626983 11.202554 7.005886 -84.559374 2.143641 23.157686 89.264029 -8.385175 0.013660 17.162472 -9.014158 -14.485368 0.000000 0.000000 0.000000 -54.894165 -22.202010 -16.775428 -88.057784 2.327500 -20.914287 83.435419 12.037228 3.963258 14.406925 8.518708 29.693448 0.000000 0.000000 0.000000 -4.986364 -0.599412 -0.124090 -14.809783 6.760564 0.773764 13.694191 -3.448707 0.963074 11.533825 -0.918494 -0.622579 0.000000 0.000000 0.000000 2.469429 -0.854293 -1.560586 0.352305 0.598489 0.838860 0.000000 0.000000 0.000000 9.516287 0.794003 3.077385 3.791855 -4.631056 28.653320 -55.436110 -17.547318 -11.542799 -9.111932 -37.761387 2.361707 0.000000 0.000000 0.000000 8.642468 0.032132 -3.171841 8.713505 9.791151 -28.812866 -56.440753 16.289369 -8.568135 -27.772970 55.169928 10.929556 0.000000 0.000000 0.000000 
